<?xml version="1.0" standalone="no"?>
<!DOCTYPE svg PUBLIC "-//W3C//DTD SVG 20010904//EN"
 "http://www.w3.org/TR/2001/REC-SVG-20010904/DTD/svg10.dtd">
<svg version="1.0" xmlns="http://www.w3.org/2000/svg"
 width="230.000000pt" height="230.000000pt" viewBox="0 0 230.000000 230.000000"
 preserveAspectRatio="xMidYMid meet">
<metadata>
Created by potrace 1.14, written by Peter Selinger 2001-2017
</metadata>
<g transform="translate(0.000000,230.000000) scale(0.100000,-0.100000)"
fill="#000000" stroke="none">
<path d="M1493 2005 l-70 -45 -129 4 c-71 2 -147 5 -169 5 -32 1 -37 4 -22 12
21 12 23 47 3 55 -20 8 -138 -11 -178 -29 -18 -8 -42 -15 -53 -15 -21 0 -171
-95 -267 -169 -43 -33 -58 -51 -58 -69 0 -15 6 -24 15 -24 8 0 15 -5 15 -11 0
-12 -66 -79 -78 -79 -4 0 -18 -16 -31 -35 -22 -33 -23 -37 -7 -54 15 -17 15
-19 -4 -36 -15 -14 -20 -31 -20 -72 0 -48 3 -54 25 -63 23 -9 25 -14 25 -79 0
-54 3 -70 16 -75 29 -11 44 13 44 70 0 50 1 53 27 56 21 2 29 9 31 28 2 13 11
30 20 36 13 9 16 29 14 101 l-3 89 98 22 c54 12 119 22 145 22 40 0 49 4 68
30 23 32 54 39 67 16 4 -8 28 -21 51 -29 38 -13 48 -13 78 -1 37 15 164 19
180 5 13 -12 109 -19 128 -9 11 6 24 -1 48 -27 22 -24 54 -43 100 -59 44 -15
80 -36 105 -61 21 -20 55 -48 75 -62 30 -21 40 -23 58 -13 15 8 20 18 17 32
-4 15 -2 18 11 13 9 -4 31 -8 47 -9 25 -1 30 3 33 25 3 21 -2 28 -23 33 l-26
7 23 19 c35 28 14 52 -61 70 -33 8 -61 18 -61 23 0 4 29 5 64 1 67 -7 82 0 71
35 -4 14 -21 22 -63 29 -31 6 -75 18 -97 27 l-40 17 35 12 c28 9 35 16 35 36
0 20 -6 26 -28 28 -15 2 -25 7 -22 12 9 14 -10 20 -67 22 -29 0 -59 4 -68 9
-8 4 -41 15 -72 24 -32 9 -58 18 -58 20 0 2 27 20 60 40 61 37 70 51 48 73
-19 19 -29 15 -105 -33z m-395 -262 c-10 -2 -26 -2 -35 0 -10 3 -2 5 17 5 19
0 27 -2 18 -5z m-213 -23 c-3 -5 -21 -10 -38 -9 -27 0 -29 2 -12 9 28 12 57
12 50 0z"/>
<path d="M766 1503 c-96 -71 -116 -109 -116 -216 l0 -78 -35 -20 c-52 -31 -60
-79 -12 -79 12 0 30 7 41 15 16 12 22 11 55 -14 55 -43 92 -51 241 -51 l138 0
33 38 c19 20 42 48 51 62 16 24 17 24 17 4 2 -50 101 -94 215 -94 88 0 112 10
158 65 l26 29 66 -13 c76 -15 99 -10 94 21 -2 17 -15 25 -56 36 -42 12 -52 18
-46 31 4 9 9 50 11 91 4 85 -4 101 -59 124 -66 28 -95 -25 -31 -56 23 -11 29
-20 31 -55 4 -60 -20 -113 -52 -113 -15 0 -27 -6 -28 -12 0 -7 -2 -18 -2 -25
-1 -6 -12 -23 -25 -37 -21 -23 -33 -26 -86 -26 -42 0 -78 7 -110 21 l-48 21 6
77 c7 108 32 185 68 216 36 30 32 29 115 9 56 -14 67 -15 75 -3 26 41 -33 71
-139 73 -62 1 -64 0 -102 -41 -26 -27 -44 -59 -53 -95 -36 -132 -35 -130 -36
-61 -1 58 -4 65 -40 103 -25 26 -44 38 -54 34 -28 -10 -27 -32 4 -70 27 -34
29 -43 29 -123 0 -66 -4 -92 -17 -111 -43 -61 -40 -60 -159 -60 -116 0 -162
10 -201 43 -20 18 -23 30 -23 94 0 101 18 138 93 193 59 44 64 46 106 38 29
-5 49 -4 58 3 36 30 -8 69 -78 69 -42 0 -56 -7 -123 -57z"/>
<path d="M834 1392 c-41 -27 -46 -121 -9 -157 53 -54 115 -15 115 73 0 40 -5
56 -22 72 -22 20 -63 26 -84 12z"/>
<path d="M1367 1379 c-27 -16 -47 -64 -47 -112 0 -60 28 -84 92 -79 23 3 45
48 54 109 6 46 4 51 -21 71 -30 24 -51 27 -78 11z"/>
<path d="M912 764 c-13 -9 -22 -23 -20 -32 3 -15 22 -17 183 -14 99 2 184 7
188 12 5 4 7 16 5 26 -3 17 -17 19 -168 22 -139 2 -169 0 -188 -14z"/>
</g>
</svg>
